<mxfile host="app.diagrams.net" modified="2022-10-14T08:08:46.723Z" agent="5.0 (Macintosh; Intel Mac OS X 10_15_7) AppleWebKit/537.36 (KHTML, like Gecko) Chrome/105.0.0.0 Safari/537.36" etag="opulGBaR4r6pIPDNr9dl" version="20.4.0" type="github">
  <diagram id="U9NmqQDuDl-t8x4wuWcX" name="第 1 页">
    <mxGraphModel dx="1940" dy="808" grid="1" gridSize="10" guides="1" tooltips="1" connect="1" arrows="1" fold="1" page="1" pageScale="1" pageWidth="827" pageHeight="1169" math="0" shadow="0">
      <root>
        <mxCell id="0" />
        <mxCell id="1" parent="0" />
        <mxCell id="QtSlfCLcQnxm3HbXBIQQ-2" value="用户" style="rounded=1;whiteSpace=wrap;html=1;fontSize=24;fillColor=#f5f5f5;fontColor=#333333;strokeColor=#666666;" parent="1" vertex="1">
          <mxGeometry x="378.82" y="50" width="172.37" height="110" as="geometry" />
        </mxCell>
        <mxCell id="QtSlfCLcQnxm3HbXBIQQ-3" value="" style="rounded=0;whiteSpace=wrap;html=1;fontSize=24;dashed=1;" parent="1" vertex="1">
          <mxGeometry x="180" y="230" width="590" height="580" as="geometry" />
        </mxCell>
        <mxCell id="QtSlfCLcQnxm3HbXBIQQ-6" value="GET Request" style="text;html=1;strokeColor=none;fillColor=none;align=center;verticalAlign=middle;whiteSpace=wrap;rounded=0;dashed=1;fontSize=24;" parent="1" vertex="1">
          <mxGeometry x="250" y="180" width="120" height="40" as="geometry" />
        </mxCell>
        <mxCell id="QtSlfCLcQnxm3HbXBIQQ-8" value="Data Response" style="text;html=1;strokeColor=none;fillColor=none;align=center;verticalAlign=middle;whiteSpace=wrap;rounded=0;dashed=1;fontSize=24;" parent="1" vertex="1">
          <mxGeometry x="545" y="170" width="140" height="60" as="geometry" />
        </mxCell>
        <mxCell id="QtSlfCLcQnxm3HbXBIQQ-9" value="" style="rounded=1;whiteSpace=wrap;html=1;fontSize=24;fillColor=#d5e8d4;strokeColor=#82b366;" parent="1" vertex="1">
          <mxGeometry x="200" y="290" width="550" height="470" as="geometry" />
        </mxCell>
        <mxCell id="6QyrNbSfhjnE2aK0devJ-2" value="SieveSlicer" style="text;html=1;strokeColor=none;fillColor=none;align=center;verticalAlign=middle;whiteSpace=wrap;rounded=0;dashed=1;fontSize=24;" parent="1" vertex="1">
          <mxGeometry x="395" y="310" width="140" height="30" as="geometry" />
        </mxCell>
        <mxCell id="Mw7In8H4w5vTyK6ZN-GI-3" value="" style="rounded=1;whiteSpace=wrap;html=1;fillColor=#B5CFFC;strokeColor=#6c8ebf;" vertex="1" parent="1">
          <mxGeometry x="260" y="400" width="420" height="150" as="geometry" />
        </mxCell>
        <mxCell id="6QyrNbSfhjnE2aK0devJ-5" value="&lt;font style=&quot;font-size: 18px;&quot;&gt;...Other&lt;br&gt;Adapter&lt;br&gt;&lt;/font&gt;" style="rounded=1;whiteSpace=wrap;html=1;fontSize=24;fillColor=#dae8fc;strokeColor=#6c8ebf;" parent="1" vertex="1">
          <mxGeometry x="540" y="410" width="115" height="60" as="geometry" />
        </mxCell>
        <mxCell id="6QyrNbSfhjnE2aK0devJ-6" value="Filter（清除冗余）" style="rounded=1;whiteSpace=wrap;html=1;fontSize=18;fillColor=#fff2cc;strokeColor=#d6b656;dashed=1;dashPattern=1 2;" parent="1" vertex="1">
          <mxGeometry x="273.75" y="350" width="390" height="40" as="geometry" />
        </mxCell>
        <mxCell id="6QyrNbSfhjnE2aK0devJ-4" value="&lt;font style=&quot;font-size: 18px;&quot;&gt;Promethus&lt;br&gt;Adapter&lt;br&gt;&lt;/font&gt;" style="rounded=1;whiteSpace=wrap;html=1;fontSize=24;fillColor=#dae8fc;strokeColor=#6c8ebf;" parent="1" vertex="1">
          <mxGeometry x="407.5" y="410" width="115" height="60" as="geometry" />
        </mxCell>
        <mxCell id="6QyrNbSfhjnE2aK0devJ-3" value="&lt;font style=&quot;font-size: 18px;&quot;&gt;ES &lt;br&gt;Adapter&lt;/font&gt;" style="rounded=1;whiteSpace=wrap;html=1;fontSize=24;fillColor=#dae8fc;strokeColor=#6c8ebf;" parent="1" vertex="1">
          <mxGeometry x="280" y="410" width="110" height="60" as="geometry" />
        </mxCell>
        <mxCell id="Mw7In8H4w5vTyK6ZN-GI-4" value="注册中心" style="text;html=1;strokeColor=none;fillColor=none;align=center;verticalAlign=middle;whiteSpace=wrap;rounded=0;fontSize=18;" vertex="1" parent="1">
          <mxGeometry x="418.75" y="490" width="100" height="30" as="geometry" />
        </mxCell>
        <mxCell id="Mw7In8H4w5vTyK6ZN-GI-19" value="" style="group" vertex="1" connectable="0" parent="1">
          <mxGeometry x="220" y="570" width="150" height="150" as="geometry" />
        </mxCell>
        <mxCell id="Mw7In8H4w5vTyK6ZN-GI-17" value="" style="shape=card;whiteSpace=wrap;html=1;fontSize=10;fillColor=#B5CFFC;" vertex="1" parent="Mw7In8H4w5vTyK6ZN-GI-19">
          <mxGeometry width="150" height="150" as="geometry" />
        </mxCell>
        <mxCell id="Mw7In8H4w5vTyK6ZN-GI-11" value="" style="group" vertex="1" connectable="0" parent="Mw7In8H4w5vTyK6ZN-GI-19">
          <mxGeometry width="110" height="90" as="geometry" />
        </mxCell>
        <mxCell id="Mw7In8H4w5vTyK6ZN-GI-5" value="" style="shape=card;whiteSpace=wrap;html=1;fontSize=18;fillColor=#B5CFFC;" vertex="1" parent="Mw7In8H4w5vTyK6ZN-GI-11">
          <mxGeometry width="110" height="90" as="geometry" />
        </mxCell>
        <mxCell id="Mw7In8H4w5vTyK6ZN-GI-6" value="type: es" style="text;html=1;strokeColor=none;fillColor=none;align=center;verticalAlign=middle;whiteSpace=wrap;rounded=0;fontSize=18;" vertex="1" parent="Mw7In8H4w5vTyK6ZN-GI-11">
          <mxGeometry x="15" y="10" width="80" height="30" as="geometry" />
        </mxCell>
        <mxCell id="Mw7In8H4w5vTyK6ZN-GI-9" value="standardize&lt;br&gt;rules" style="text;html=1;strokeColor=none;fillColor=none;align=center;verticalAlign=middle;whiteSpace=wrap;rounded=0;fontSize=18;" vertex="1" parent="Mw7In8H4w5vTyK6ZN-GI-11">
          <mxGeometry y="25" width="110" height="65" as="geometry" />
        </mxCell>
        <mxCell id="Mw7In8H4w5vTyK6ZN-GI-18" value="DataSource" style="text;html=1;strokeColor=none;fillColor=none;align=center;verticalAlign=middle;whiteSpace=wrap;rounded=0;fontSize=24;" vertex="1" parent="Mw7In8H4w5vTyK6ZN-GI-19">
          <mxGeometry y="100" width="150" height="40" as="geometry" />
        </mxCell>
        <mxCell id="Mw7In8H4w5vTyK6ZN-GI-27" value="" style="group" vertex="1" connectable="0" parent="1">
          <mxGeometry x="395" y="570" width="150" height="150" as="geometry" />
        </mxCell>
        <mxCell id="Mw7In8H4w5vTyK6ZN-GI-28" value="" style="shape=card;whiteSpace=wrap;html=1;fontSize=10;fillColor=#B5CFFC;" vertex="1" parent="Mw7In8H4w5vTyK6ZN-GI-27">
          <mxGeometry width="150" height="150" as="geometry" />
        </mxCell>
        <mxCell id="Mw7In8H4w5vTyK6ZN-GI-29" value="" style="group" vertex="1" connectable="0" parent="Mw7In8H4w5vTyK6ZN-GI-27">
          <mxGeometry width="110" height="90" as="geometry" />
        </mxCell>
        <mxCell id="Mw7In8H4w5vTyK6ZN-GI-30" value="" style="shape=card;whiteSpace=wrap;html=1;fontSize=18;fillColor=#B5CFFC;" vertex="1" parent="Mw7In8H4w5vTyK6ZN-GI-29">
          <mxGeometry width="110" height="90" as="geometry" />
        </mxCell>
        <mxCell id="Mw7In8H4w5vTyK6ZN-GI-31" value="type: pr" style="text;html=1;strokeColor=none;fillColor=none;align=center;verticalAlign=middle;whiteSpace=wrap;rounded=0;fontSize=18;" vertex="1" parent="Mw7In8H4w5vTyK6ZN-GI-29">
          <mxGeometry x="15" y="10" width="80" height="30" as="geometry" />
        </mxCell>
        <mxCell id="Mw7In8H4w5vTyK6ZN-GI-32" value="standardize&lt;br&gt;rules" style="text;html=1;strokeColor=none;fillColor=none;align=center;verticalAlign=middle;whiteSpace=wrap;rounded=0;fontSize=18;" vertex="1" parent="Mw7In8H4w5vTyK6ZN-GI-29">
          <mxGeometry y="25" width="110" height="65" as="geometry" />
        </mxCell>
        <mxCell id="Mw7In8H4w5vTyK6ZN-GI-33" value="DataSource" style="text;html=1;strokeColor=none;fillColor=none;align=center;verticalAlign=middle;whiteSpace=wrap;rounded=0;fontSize=24;" vertex="1" parent="Mw7In8H4w5vTyK6ZN-GI-27">
          <mxGeometry y="100" width="150" height="40" as="geometry" />
        </mxCell>
        <mxCell id="Mw7In8H4w5vTyK6ZN-GI-34" value="" style="group" vertex="1" connectable="0" parent="1">
          <mxGeometry x="568.75" y="570" width="150" height="150" as="geometry" />
        </mxCell>
        <mxCell id="Mw7In8H4w5vTyK6ZN-GI-35" value="" style="shape=card;whiteSpace=wrap;html=1;fontSize=10;fillColor=#B5CFFC;" vertex="1" parent="Mw7In8H4w5vTyK6ZN-GI-34">
          <mxGeometry width="150" height="150" as="geometry" />
        </mxCell>
        <mxCell id="Mw7In8H4w5vTyK6ZN-GI-36" value="" style="group" vertex="1" connectable="0" parent="Mw7In8H4w5vTyK6ZN-GI-34">
          <mxGeometry width="110" height="90" as="geometry" />
        </mxCell>
        <mxCell id="Mw7In8H4w5vTyK6ZN-GI-37" value="" style="shape=card;whiteSpace=wrap;html=1;fontSize=18;fillColor=#B5CFFC;" vertex="1" parent="Mw7In8H4w5vTyK6ZN-GI-36">
          <mxGeometry width="110" height="90" as="geometry" />
        </mxCell>
        <mxCell id="Mw7In8H4w5vTyK6ZN-GI-38" value="type: ..." style="text;html=1;strokeColor=none;fillColor=none;align=center;verticalAlign=middle;whiteSpace=wrap;rounded=0;fontSize=18;" vertex="1" parent="Mw7In8H4w5vTyK6ZN-GI-36">
          <mxGeometry x="15" y="10" width="80" height="30" as="geometry" />
        </mxCell>
        <mxCell id="Mw7In8H4w5vTyK6ZN-GI-39" value="standardize&lt;br&gt;rules" style="text;html=1;strokeColor=none;fillColor=none;align=center;verticalAlign=middle;whiteSpace=wrap;rounded=0;fontSize=18;" vertex="1" parent="Mw7In8H4w5vTyK6ZN-GI-36">
          <mxGeometry y="25" width="110" height="65" as="geometry" />
        </mxCell>
        <mxCell id="Mw7In8H4w5vTyK6ZN-GI-40" value="..." style="text;html=1;strokeColor=none;fillColor=none;align=center;verticalAlign=middle;whiteSpace=wrap;rounded=0;fontSize=24;" vertex="1" parent="Mw7In8H4w5vTyK6ZN-GI-34">
          <mxGeometry y="100" width="150" height="40" as="geometry" />
        </mxCell>
        <mxCell id="Mw7In8H4w5vTyK6ZN-GI-42" value="Server" style="rounded=1;whiteSpace=wrap;html=1;fontSize=24;fillColor=#d5e8d4;strokeColor=#82b366;" vertex="1" parent="1">
          <mxGeometry x="290" y="250" width="350" height="40" as="geometry" />
        </mxCell>
        <mxCell id="Mw7In8H4w5vTyK6ZN-GI-43" value="" style="shape=flexArrow;endArrow=classic;html=1;rounded=1;fontSize=24;entryX=0.25;entryY=0;entryDx=0;entryDy=0;fillColor=#f5f5f5;strokeColor=#666666;" edge="1" parent="1" target="Mw7In8H4w5vTyK6ZN-GI-42">
          <mxGeometry width="50" height="50" relative="1" as="geometry">
            <mxPoint x="378" y="160" as="sourcePoint" />
            <mxPoint x="350" y="170" as="targetPoint" />
          </mxGeometry>
        </mxCell>
        <mxCell id="Mw7In8H4w5vTyK6ZN-GI-44" value="" style="shape=flexArrow;endArrow=classic;html=1;rounded=1;fontSize=24;exitX=0.75;exitY=0;exitDx=0;exitDy=0;fillColor=#f5f5f5;strokeColor=#666666;" edge="1" parent="1" source="Mw7In8H4w5vTyK6ZN-GI-42">
          <mxGeometry width="50" height="50" relative="1" as="geometry">
            <mxPoint x="568.8800000000001" y="120" as="sourcePoint" />
            <mxPoint x="553" y="160" as="targetPoint" />
          </mxGeometry>
        </mxCell>
        <mxCell id="Mw7In8H4w5vTyK6ZN-GI-45" value="es" style="shape=cylinder3;whiteSpace=wrap;html=1;boundedLbl=1;backgroundOutline=1;size=15;fontSize=24;fillColor=#f5f5f5;fontColor=#333333;strokeColor=#666666;" vertex="1" parent="1">
          <mxGeometry x="220" y="830" width="140" height="80" as="geometry" />
        </mxCell>
        <mxCell id="Mw7In8H4w5vTyK6ZN-GI-46" value="es" style="shape=cylinder3;whiteSpace=wrap;html=1;boundedLbl=1;backgroundOutline=1;size=15;fontSize=24;fillColor=#f5f5f5;fontColor=#333333;strokeColor=#666666;" vertex="1" parent="1">
          <mxGeometry x="378.82" y="830" width="140" height="80" as="geometry" />
        </mxCell>
        <mxCell id="Mw7In8H4w5vTyK6ZN-GI-47" value="es" style="shape=cylinder3;whiteSpace=wrap;html=1;boundedLbl=1;backgroundOutline=1;size=15;fontSize=24;fillColor=#f5f5f5;fontColor=#333333;strokeColor=#666666;" vertex="1" parent="1">
          <mxGeometry x="540" y="830" width="140" height="80" as="geometry" />
        </mxCell>
        <mxCell id="Mw7In8H4w5vTyK6ZN-GI-48" value="pr" style="shape=cylinder3;whiteSpace=wrap;html=1;boundedLbl=1;backgroundOutline=1;size=15;fontSize=24;fillColor=#f5f5f5;fontColor=#333333;strokeColor=#666666;" vertex="1" parent="1">
          <mxGeometry x="218.82" y="920" width="140" height="80" as="geometry" />
        </mxCell>
        <mxCell id="Mw7In8H4w5vTyK6ZN-GI-49" value="pr" style="shape=cylinder3;whiteSpace=wrap;html=1;boundedLbl=1;backgroundOutline=1;size=15;fontSize=24;fillColor=#f5f5f5;fontColor=#333333;strokeColor=#666666;" vertex="1" parent="1">
          <mxGeometry x="377.64" y="920" width="140" height="80" as="geometry" />
        </mxCell>
        <mxCell id="Mw7In8H4w5vTyK6ZN-GI-50" value="pr" style="shape=cylinder3;whiteSpace=wrap;html=1;boundedLbl=1;backgroundOutline=1;size=15;fontSize=24;fillColor=#f5f5f5;fontColor=#333333;strokeColor=#666666;" vertex="1" parent="1">
          <mxGeometry x="538.82" y="920" width="140" height="80" as="geometry" />
        </mxCell>
        <mxCell id="Mw7In8H4w5vTyK6ZN-GI-51" value="" style="curved=1;endArrow=classic;html=1;rounded=1;fontSize=24;entryX=0;entryY=0.5;entryDx=0;entryDy=0;entryPerimeter=0;" edge="1" parent="1" target="Mw7In8H4w5vTyK6ZN-GI-48">
          <mxGeometry width="50" height="50" relative="1" as="geometry">
            <mxPoint x="60" y="1190" as="sourcePoint" />
            <mxPoint x="140" y="1050" as="targetPoint" />
            <Array as="points">
              <mxPoint x="200" y="1160" />
              <mxPoint x="90" y="970" />
            </Array>
          </mxGeometry>
        </mxCell>
        <mxCell id="Mw7In8H4w5vTyK6ZN-GI-54" value="" style="curved=1;endArrow=classic;html=1;rounded=1;fontSize=24;entryX=0;entryY=0.5;entryDx=0;entryDy=0;entryPerimeter=0;" edge="1" parent="1" target="Mw7In8H4w5vTyK6ZN-GI-45">
          <mxGeometry width="50" height="50" relative="1" as="geometry">
            <mxPoint x="20" y="1190" as="sourcePoint" />
            <mxPoint x="158.81999999999994" y="950" as="targetPoint" />
            <Array as="points">
              <mxPoint x="159" y="1130" />
              <mxPoint x="30" y="980" />
              <mxPoint x="120" y="870" />
            </Array>
          </mxGeometry>
        </mxCell>
        <mxCell id="Mw7In8H4w5vTyK6ZN-GI-55" value="" style="endArrow=classic;startArrow=classic;html=1;rounded=1;fontSize=24;entryX=0.5;entryY=1;entryDx=0;entryDy=0;entryPerimeter=0;exitX=0.5;exitY=0;exitDx=0;exitDy=0;exitPerimeter=0;" edge="1" parent="1" source="Mw7In8H4w5vTyK6ZN-GI-45" target="Mw7In8H4w5vTyK6ZN-GI-17">
          <mxGeometry width="50" height="50" relative="1" as="geometry">
            <mxPoint x="370" y="720" as="sourcePoint" />
            <mxPoint x="420" y="670" as="targetPoint" />
          </mxGeometry>
        </mxCell>
        <mxCell id="Mw7In8H4w5vTyK6ZN-GI-56" value="" style="endArrow=classic;startArrow=classic;html=1;rounded=1;fontSize=24;exitX=0.5;exitY=0;exitDx=0;exitDy=0;exitPerimeter=0;entryX=0.5;entryY=1;entryDx=0;entryDy=0;entryPerimeter=0;" edge="1" parent="1" source="Mw7In8H4w5vTyK6ZN-GI-49" target="Mw7In8H4w5vTyK6ZN-GI-28">
          <mxGeometry width="50" height="50" relative="1" as="geometry">
            <mxPoint x="370" y="720" as="sourcePoint" />
            <mxPoint x="420" y="670" as="targetPoint" />
            <Array as="points">
              <mxPoint x="370" y="910" />
              <mxPoint x="370" y="780" />
            </Array>
          </mxGeometry>
        </mxCell>
        <mxCell id="Mw7In8H4w5vTyK6ZN-GI-57" value="" style="endArrow=classic;startArrow=classic;html=1;rounded=1;fontSize=24;exitX=0.5;exitY=0;exitDx=0;exitDy=0;exitPerimeter=0;entryX=0.5;entryY=1;entryDx=0;entryDy=0;entryPerimeter=0;" edge="1" parent="1" source="Mw7In8H4w5vTyK6ZN-GI-60" target="Mw7In8H4w5vTyK6ZN-GI-35">
          <mxGeometry width="50" height="50" relative="1" as="geometry">
            <mxPoint x="610" y="780" as="sourcePoint" />
            <mxPoint x="660" y="730" as="targetPoint" />
            <Array as="points">
              <mxPoint x="690" y="1000" />
              <mxPoint x="690" y="860" />
            </Array>
          </mxGeometry>
        </mxCell>
        <mxCell id="Mw7In8H4w5vTyK6ZN-GI-58" value="..." style="shape=cylinder3;whiteSpace=wrap;html=1;boundedLbl=1;backgroundOutline=1;size=15;fontSize=24;fillColor=#f5f5f5;fontColor=#333333;strokeColor=#666666;" vertex="1" parent="1">
          <mxGeometry x="218.82" y="1010" width="140" height="80" as="geometry" />
        </mxCell>
        <mxCell id="Mw7In8H4w5vTyK6ZN-GI-59" value="..." style="shape=cylinder3;whiteSpace=wrap;html=1;boundedLbl=1;backgroundOutline=1;size=15;fontSize=24;fillColor=#f5f5f5;fontColor=#333333;strokeColor=#666666;" vertex="1" parent="1">
          <mxGeometry x="377.64" y="1010" width="140" height="80" as="geometry" />
        </mxCell>
        <mxCell id="Mw7In8H4w5vTyK6ZN-GI-60" value="..." style="shape=cylinder3;whiteSpace=wrap;html=1;boundedLbl=1;backgroundOutline=1;size=15;fontSize=24;fillColor=#f5f5f5;fontColor=#333333;strokeColor=#666666;" vertex="1" parent="1">
          <mxGeometry x="538.82" y="1010" width="140" height="80" as="geometry" />
        </mxCell>
        <mxCell id="Mw7In8H4w5vTyK6ZN-GI-61" value="" style="curved=1;endArrow=classic;html=1;rounded=1;fontSize=24;entryX=0;entryY=0.5;entryDx=0;entryDy=0;entryPerimeter=0;" edge="1" parent="1" target="Mw7In8H4w5vTyK6ZN-GI-58">
          <mxGeometry width="50" height="50" relative="1" as="geometry">
            <mxPoint x="110" y="1190" as="sourcePoint" />
            <mxPoint x="140" y="1140" as="targetPoint" />
            <Array as="points">
              <mxPoint x="300" y="1170" />
              <mxPoint x="150" y="1100" />
            </Array>
          </mxGeometry>
        </mxCell>
        <mxCell id="Mw7In8H4w5vTyK6ZN-GI-64" value="Messed&lt;br&gt;logstash、 otherCollectors" style="shape=parallelogram;perimeter=parallelogramPerimeter;whiteSpace=wrap;html=1;fixedSize=1;fontSize=24;fillColor=#f5f5f5;fontColor=#333333;strokeColor=#666666;size=20;" vertex="1" parent="1">
          <mxGeometry x="77.5" y="1290" width="330" height="100" as="geometry" />
        </mxCell>
        <mxCell id="Mw7In8H4w5vTyK6ZN-GI-66" value="&lt;span style=&quot;color: rgb(0, 0, 0);&quot;&gt;Messed Files、Stdout、Events...&lt;/span&gt;" style="ellipse;shape=cloud;whiteSpace=wrap;html=1;fontSize=24;fillColor=#f5f5f5;fontColor=#333333;strokeColor=#666666;" vertex="1" parent="1">
          <mxGeometry x="150" y="1380" width="670" height="230" as="geometry" />
        </mxCell>
        <mxCell id="Mw7In8H4w5vTyK6ZN-GI-67" value="" style="ellipse;shape=cloud;whiteSpace=wrap;html=1;fontSize=24;fillColor=#f5f5f5;fontColor=#333333;strokeColor=#666666;" vertex="1" parent="1">
          <mxGeometry x="-11.18" y="1190" width="230" height="90" as="geometry" />
        </mxCell>
        <mxCell id="Mw7In8H4w5vTyK6ZN-GI-63" value="Messed Logs" style="text;html=1;strokeColor=none;fillColor=none;align=center;verticalAlign=middle;whiteSpace=wrap;rounded=0;fontSize=24;" vertex="1" parent="1">
          <mxGeometry x="10" y="1200" width="201.18" height="70" as="geometry" />
        </mxCell>
        <mxCell id="Mw7In8H4w5vTyK6ZN-GI-70" value="" style="shape=flexArrow;endArrow=classic;html=1;rounded=1;fontSize=24;exitX=0.55;exitY=0.95;exitDx=0;exitDy=0;exitPerimeter=0;entryX=0.327;entryY=0.001;entryDx=0;entryDy=0;entryPerimeter=0;" edge="1" parent="1" source="Mw7In8H4w5vTyK6ZN-GI-66" target="Mw7In8H4w5vTyK6ZN-GI-63">
          <mxGeometry width="50" height="50" relative="1" as="geometry">
            <mxPoint x="240" y="1540" as="sourcePoint" />
            <mxPoint x="290" y="1490" as="targetPoint" />
          </mxGeometry>
        </mxCell>
        <mxCell id="Mw7In8H4w5vTyK6ZN-GI-71" value="" style="shape=flexArrow;endArrow=classic;html=1;rounded=1;fontSize=24;" edge="1" parent="1">
          <mxGeometry width="50" height="50" relative="1" as="geometry">
            <mxPoint x="40" y="880" as="sourcePoint" />
            <mxPoint x="40" y="240" as="targetPoint" />
          </mxGeometry>
        </mxCell>
        <mxCell id="Mw7In8H4w5vTyK6ZN-GI-72" value="More Standarder" style="text;html=1;strokeColor=none;fillColor=none;align=center;verticalAlign=middle;whiteSpace=wrap;rounded=0;fontSize=24;" vertex="1" parent="1">
          <mxGeometry x="73.82" y="720" width="60" height="30" as="geometry" />
        </mxCell>
        <mxCell id="Mw7In8H4w5vTyK6ZN-GI-74" value="More Orderlier" style="text;html=1;strokeColor=none;fillColor=none;align=center;verticalAlign=middle;whiteSpace=wrap;rounded=0;fontSize=24;" vertex="1" parent="1">
          <mxGeometry x="70" y="510" width="60" height="30" as="geometry" />
        </mxCell>
        <mxCell id="Mw7In8H4w5vTyK6ZN-GI-75" value="Fully Structured" style="text;html=1;strokeColor=none;fillColor=none;align=center;verticalAlign=middle;whiteSpace=wrap;rounded=0;fontSize=24;" vertex="1" parent="1">
          <mxGeometry x="73.82" y="280" width="60" height="30" as="geometry" />
        </mxCell>
      </root>
    </mxGraphModel>
  </diagram>
</mxfile>
